<svg width="317" height="200" viewBox="0 0 317 200" fill="none" xmlns="http://www.w3.org/2000/svg">
<circle cx="100" cy="100" r="100" fill="white"/>
<path d="M64.3 136C61.3 136 58.5 135.467 55.9 134.4C53.3667 133.333 51.3333 131.667 49.8 129.4C48.2667 127.133 47.5 124.267 47.5 120.8C47.5 115.8 49.1667 111.933 52.5 109.2C55.8333 106.4 60.8667 105 67.6 105H79.9V104.1C79.9 102.233 79.1333 100.867 77.6 100C76.0667 99.1333 73.3667 98.7 69.5 98.7C64.0333 98.7 58.6333 99.5333 53.3 101.2V89.9C55.7 88.9667 58.7 88.2 62.3 87.6C65.9 86.9333 69.5667 86.6 73.3 86.6C80.8333 86.6 86.8 88.1333 91.2 91.2C95.6 94.2667 97.8 99.1333 97.8 105.8V135H81.4L80.5 131.2C78.8333 132.667 76.6667 133.833 74 134.7C71.4 135.567 68.1667 136 64.3 136ZM70.7 125C72.8333 125 74.6333 124.633 76.1 123.9C77.6333 123.167 78.9 122.267 79.9 121.2V115.3H70.8C66.6667 115.3 64.6 116.933 64.6 120.2C64.6 123.4 66.6333 125 70.7 125ZM112.436 81.3V67.7H132.736V81.3H112.436ZM114.436 158.4C109.436 158.4 105.169 157.667 101.636 156.2V143.7C103.636 144.367 105.636 144.7 107.636 144.7C111.836 144.7 113.936 143 113.936 139.6V101.3H107.036L108.636 87.6H132.736V141C132.736 146.067 131.269 150.233 128.336 153.5C125.403 156.767 120.769 158.4 114.436 158.4ZM167.388 136C157.921 136 150.921 133.9 146.388 129.7C141.921 125.5 139.688 119.367 139.688 111.3C139.688 103.3 141.954 97.2 146.488 93C151.021 88.7333 157.988 86.6 167.388 86.6C176.854 86.6 183.854 88.7333 188.388 93C192.988 97.2 195.288 103.3 195.288 111.3C195.288 119.367 193.021 125.5 188.488 129.7C183.954 133.9 176.921 136 167.388 136ZM167.388 122.3C170.454 122.3 172.654 121.433 173.988 119.7C175.388 117.967 176.088 115.167 176.088 111.3C176.088 107.5 175.388 104.733 173.988 103C172.654 101.2 170.454 100.3 167.388 100.3C164.388 100.3 162.221 101.2 160.888 103C159.554 104.733 158.888 107.5 158.888 111.3C158.888 115.167 159.554 117.967 160.888 119.7C162.221 121.433 164.388 122.3 167.388 122.3Z" fill="#007AC8"/>
<path d="M202.332 135V67.6H221.132V100.9L234.332 87.6H255.632L236.732 107.6L256.732 135H236.732L225.032 117.4L221.132 121.3V135H202.332ZM277.93 136C272.397 136 268.064 134.433 264.93 131.3C261.797 128.167 260.23 123.567 260.23 117.5V87.6H279.03V116C279.03 120.133 281.13 122.2 285.33 122.2C286.864 122.2 288.364 121.867 289.83 121.2C291.297 120.533 292.464 119.7 293.33 118.7V87.6H312.13V135H294.53L294.03 131.4C292.164 132.733 289.864 133.833 287.13 134.7C284.464 135.567 281.397 136 277.93 136Z" fill="black"/>
</svg>
