<svg width="397" height="250" viewBox="0 0 397 250" fill="none" xmlns="http://www.w3.org/2000/svg">
<circle cx="125" cy="125" r="123" fill="white" stroke="#A62E0A" stroke-width="4"/>
<mask id="path-2-outside-1_55_163" maskUnits="userSpaceOnUse" x="26" y="90" width="371" height="75" fill="black">
<rect fill="white" x="26" y="90" width="371" height="75"/>
<path d="M32.5 160L57.2 95.6H77.1L101.8 160H82.2L76.8 146.3H57.4L52.1 160H32.5ZM59.9 132.8H74.3L67.1 113.9L59.9 132.8ZM131.116 161C128.316 161 125.65 160.8 123.116 160.4C120.583 160.067 118.15 159.5 115.816 158.7V143.1C117.416 143.767 119.216 144.267 121.216 144.6C123.216 144.933 125.216 145.1 127.216 145.1C130.816 145.1 133.383 144.367 134.916 142.9C136.45 141.433 137.216 139 137.216 135.6V95.6H156.016V138.6C156.016 145.6 153.883 151.1 149.616 155.1C145.416 159.033 139.25 161 131.116 161ZM206.443 161C195.776 161 187.61 158.4 181.943 153.2C176.343 148 173.543 139.6 173.543 128C173.543 120 174.81 113.567 177.343 108.7C179.876 103.767 183.576 100.2 188.443 98C193.376 95.7333 199.376 94.6 206.443 94.6C213.51 94.6 219.476 95.7333 224.343 98C229.276 100.2 233.01 103.767 235.543 108.7C238.076 113.567 239.343 120 239.343 128C239.343 139.6 236.51 148 230.843 153.2C225.176 158.4 217.043 161 206.443 161ZM206.443 145C211.243 145 214.71 143.667 216.843 141C219.043 138.267 220.143 133.933 220.143 128C220.143 121.667 219.043 117.2 216.843 114.6C214.71 111.933 211.243 110.6 206.443 110.6C201.643 110.6 198.143 111.933 195.943 114.6C193.81 117.2 192.743 121.667 192.743 128C192.743 133.933 193.81 138.267 195.943 141C198.143 143.667 201.643 145 206.443 145Z"/>
<path d="M257.344 160V95.6H276.144V118.3L295.644 95.6H317.044L294.344 122L318.644 160H298.644L282.744 134L276.144 141.4V160H257.344ZM361.625 161C355.625 161 350.325 160.033 345.725 158.1C341.192 156.1 337.625 153.2 335.025 149.4C332.425 145.533 331.125 140.8 331.125 135.2V95.6H349.925V133.2C349.925 141.067 353.825 145 361.625 145C365.358 145 368.225 144.033 370.225 142.1C372.225 140.167 373.225 137.2 373.225 133.2V95.6H392.025V135.2C392.025 140.8 390.725 145.533 388.125 149.4C385.592 153.2 382.025 156.1 377.425 158.1C372.892 160.033 367.625 161 361.625 161Z"/>
</mask>
<path d="M32.5 160L57.2 95.6H77.1L101.8 160H82.2L76.8 146.3H57.4L52.1 160H32.5ZM59.9 132.8H74.3L67.1 113.9L59.9 132.8ZM131.116 161C128.316 161 125.65 160.8 123.116 160.4C120.583 160.067 118.15 159.5 115.816 158.7V143.1C117.416 143.767 119.216 144.267 121.216 144.6C123.216 144.933 125.216 145.1 127.216 145.1C130.816 145.1 133.383 144.367 134.916 142.9C136.45 141.433 137.216 139 137.216 135.6V95.6H156.016V138.6C156.016 145.6 153.883 151.1 149.616 155.1C145.416 159.033 139.25 161 131.116 161ZM206.443 161C195.776 161 187.61 158.4 181.943 153.2C176.343 148 173.543 139.6 173.543 128C173.543 120 174.81 113.567 177.343 108.7C179.876 103.767 183.576 100.2 188.443 98C193.376 95.7333 199.376 94.6 206.443 94.6C213.51 94.6 219.476 95.7333 224.343 98C229.276 100.2 233.01 103.767 235.543 108.7C238.076 113.567 239.343 120 239.343 128C239.343 139.6 236.51 148 230.843 153.2C225.176 158.4 217.043 161 206.443 161ZM206.443 145C211.243 145 214.71 143.667 216.843 141C219.043 138.267 220.143 133.933 220.143 128C220.143 121.667 219.043 117.2 216.843 114.6C214.71 111.933 211.243 110.6 206.443 110.6C201.643 110.6 198.143 111.933 195.943 114.6C193.81 117.2 192.743 121.667 192.743 128C192.743 133.933 193.81 138.267 195.943 141C198.143 143.667 201.643 145 206.443 145Z" fill="#BF7B66"/>
<path d="M257.344 160V95.6H276.144V118.3L295.644 95.6H317.044L294.344 122L318.644 160H298.644L282.744 134L276.144 141.4V160H257.344ZM361.625 161C355.625 161 350.325 160.033 345.725 158.1C341.192 156.1 337.625 153.2 335.025 149.4C332.425 145.533 331.125 140.8 331.125 135.2V95.6H349.925V133.2C349.925 141.067 353.825 145 361.625 145C365.358 145 368.225 144.033 370.225 142.1C372.225 140.167 373.225 137.2 373.225 133.2V95.6H392.025V135.2C392.025 140.8 390.725 145.533 388.125 149.4C385.592 153.2 382.025 156.1 377.425 158.1C372.892 160.033 367.625 161 361.625 161Z" fill="white"/>
<path d="M32.5 160L28.7653 158.568L26.6817 164H32.5V160ZM57.2 95.6V91.6H54.45L53.4653 94.1676L57.2 95.6ZM77.1 95.6L80.8347 94.1676L79.85 91.6H77.1V95.6ZM101.8 160V164H107.618L105.535 158.568L101.8 160ZM82.2 160L78.4786 161.467L79.4771 164H82.2V160ZM76.8 146.3L80.5214 144.833L79.5229 142.3H76.8V146.3ZM57.4 146.3V142.3H54.6586L53.6694 144.857L57.4 146.3ZM52.1 160V164H54.8414L55.8306 161.443L52.1 160ZM59.9 132.8L56.1621 131.376L54.0958 136.8H59.9V132.8ZM74.3 132.8V136.8H80.1042L78.038 131.376L74.3 132.8ZM67.1 113.9L70.838 112.476L67.1 102.664L63.3621 112.476L67.1 113.9ZM32.5 160L36.2347 161.432L60.9347 97.0324L57.2 95.6L53.4653 94.1676L28.7653 158.568L32.5 160ZM57.2 95.6V99.6H77.1V95.6V91.6H57.2V95.6ZM77.1 95.6L73.3653 97.0324L98.0653 161.432L101.8 160L105.535 158.568L80.8347 94.1676L77.1 95.6ZM101.8 160V156H82.2V160V164H101.8V160ZM82.2 160L85.9214 158.533L80.5214 144.833L76.8 146.3L73.0786 147.767L78.4786 161.467L82.2 160ZM76.8 146.3V142.3H57.4V146.3V150.3H76.8V146.3ZM57.4 146.3L53.6694 144.857L48.3694 158.557L52.1 160L55.8306 161.443L61.1306 147.743L57.4 146.3ZM52.1 160V156H32.5V160V164H52.1V160ZM59.9 132.8V136.8H74.3V132.8V128.8H59.9V132.8ZM74.3 132.8L78.038 131.376L70.838 112.476L67.1 113.9L63.3621 115.324L70.5621 134.224L74.3 132.8ZM67.1 113.9L63.3621 112.476L56.1621 131.376L59.9 132.8L63.638 134.224L70.838 115.324L67.1 113.9ZM123.116 160.4L123.74 156.449L123.689 156.441L123.638 156.434L123.116 160.4ZM115.816 158.7H111.816V161.557L114.519 162.484L115.816 158.7ZM115.816 143.1L117.355 139.408L111.816 137.1V143.1H115.816ZM121.216 144.6L121.874 140.654L121.874 140.654L121.216 144.6ZM137.216 95.6V91.6H133.216V95.6H137.216ZM156.016 95.6H160.016V91.6H156.016V95.6ZM149.616 155.1L152.351 158.02L152.352 158.018L149.616 155.1ZM131.116 161V157C128.507 157 126.049 156.814 123.74 156.449L123.116 160.4L122.493 164.351C125.25 164.786 128.126 165 131.116 165V161ZM123.116 160.4L123.638 156.434C121.359 156.134 119.186 155.627 117.114 154.916L115.816 158.7L114.519 162.484C117.113 163.373 119.807 163.999 122.595 164.366L123.116 160.4ZM115.816 158.7H119.816V143.1H115.816H111.816V158.7H115.816ZM115.816 143.1L114.278 146.792C116.204 147.595 118.306 148.17 120.559 148.546L121.216 144.6L121.874 140.654C120.127 140.363 118.629 139.939 117.355 139.408L115.816 143.1ZM121.216 144.6L120.559 148.546C122.773 148.915 124.993 149.1 127.216 149.1V145.1V141.1C125.44 141.1 123.66 140.952 121.874 140.654L121.216 144.6ZM127.216 145.1V149.1C131.178 149.1 135.031 148.326 137.681 145.791L134.916 142.9L132.152 140.009C131.736 140.407 130.455 141.1 127.216 141.1V145.1ZM134.916 142.9L137.681 145.791C140.368 143.22 141.216 139.455 141.216 135.6H137.216H133.216C133.216 138.545 132.531 139.646 132.152 140.009L134.916 142.9ZM137.216 135.6H141.216V95.6H137.216H133.216V135.6H137.216ZM137.216 95.6V99.6H156.016V95.6V91.6H137.216V95.6ZM156.016 95.6H152.016V138.6H156.016H160.016V95.6H156.016ZM156.016 138.6H152.016C152.016 144.73 150.184 149.085 146.881 152.182L149.616 155.1L152.352 158.018C157.583 153.115 160.016 146.47 160.016 138.6H156.016ZM149.616 155.1L146.882 152.18C143.682 155.177 138.655 157 131.116 157V161V165C139.845 165 147.151 162.889 152.351 158.02L149.616 155.1ZM181.943 153.2L179.221 156.131L179.23 156.139L179.239 156.147L181.943 153.2ZM177.343 108.7L180.891 110.547L180.896 110.537L180.901 110.527L177.343 108.7ZM188.443 98L190.091 101.645L190.102 101.64L190.113 101.635L188.443 98ZM224.343 98L222.654 101.626L222.684 101.64L222.714 101.653L224.343 98ZM235.543 108.7L231.985 110.527L231.99 110.537L231.995 110.547L235.543 108.7ZM230.843 153.2L233.547 156.147L233.547 156.147L230.843 153.2ZM216.843 141L213.727 138.492L213.719 138.501L216.843 141ZM216.843 114.6L213.719 117.099L213.754 117.142L213.789 117.184L216.843 114.6ZM195.943 114.6L192.857 112.054L192.851 112.063L195.943 114.6ZM195.943 141L192.79 143.461L192.823 143.504L192.857 143.546L195.943 141ZM206.443 161V157C196.388 157 189.332 154.552 184.647 150.253L181.943 153.2L179.239 156.147C185.887 162.248 195.164 165 206.443 165V161ZM181.943 153.2L184.665 150.269C180.222 146.143 177.543 139.061 177.543 128H173.543H169.543C169.543 140.139 172.464 149.857 179.221 156.131L181.943 153.2ZM173.543 128H177.543C177.543 120.37 178.759 114.642 180.891 110.547L177.343 108.7L173.795 106.853C170.86 112.491 169.543 119.63 169.543 128H173.543ZM177.343 108.7L180.901 110.527C183.039 106.365 186.082 103.457 190.091 101.645L188.443 98L186.795 94.3551C181.071 96.9428 176.714 101.168 173.785 106.873L177.343 108.7ZM188.443 98L190.113 101.635C194.39 99.6698 199.786 98.6 206.443 98.6V94.6V90.6C198.966 90.6 192.363 91.7969 186.773 94.3653L188.443 98ZM206.443 94.6V98.6C213.103 98.6 218.456 99.6706 222.654 101.626L224.343 98L226.032 94.374C220.497 91.796 213.917 90.6 206.443 90.6V94.6ZM224.343 98L222.714 101.653C226.791 103.471 229.856 106.381 231.985 110.527L235.543 108.7L239.101 106.873C236.164 101.152 231.761 96.9285 225.972 94.3468L224.343 98ZM235.543 108.7L231.995 110.547C234.127 114.642 235.343 120.37 235.343 128H239.343H243.343C243.343 119.63 242.026 112.491 239.091 106.853L235.543 108.7ZM239.343 128H235.343C235.343 139.049 232.637 146.125 228.139 150.253L230.843 153.2L233.547 156.147C240.382 149.875 243.343 140.151 243.343 128H239.343ZM230.843 153.2L228.139 150.253C223.45 154.556 216.423 157 206.443 157V161V165C217.663 165 226.903 162.244 233.547 156.147L230.843 153.2ZM206.443 145V149C211.94 149 216.801 147.456 219.966 143.499L216.843 141L213.719 138.501C212.619 139.877 210.546 141 206.443 141V145ZM216.843 141L219.959 143.508C223.01 139.718 224.143 134.271 224.143 128H220.143H216.143C216.143 133.596 215.076 136.816 213.727 138.492L216.843 141ZM220.143 128H224.143C224.143 121.435 223.049 115.742 219.897 112.016L216.843 114.6L213.789 117.184C215.037 118.658 216.143 121.898 216.143 128H220.143ZM216.843 114.6L219.966 112.101C216.801 108.144 211.94 106.6 206.443 106.6V110.6V114.6C210.546 114.6 212.619 115.723 213.719 117.099L216.843 114.6ZM206.443 110.6V106.6C200.936 106.6 196.081 108.147 192.857 112.054L195.943 114.6L199.028 117.146C200.205 115.719 202.35 114.6 206.443 114.6V110.6ZM195.943 114.6L192.851 112.063C189.799 115.782 188.743 121.453 188.743 128H192.743H196.743C196.743 121.881 197.82 118.618 199.035 117.137L195.943 114.6ZM192.743 128H188.743C188.743 134.252 189.837 139.677 192.79 143.461L195.943 141L199.096 138.539C197.783 136.856 196.743 133.615 196.743 128H192.743ZM195.943 141L192.857 143.546C196.081 147.453 200.936 149 206.443 149V145V141C202.35 141 200.205 139.881 199.028 138.454L195.943 141ZM257.344 160H253.344V164H257.344V160ZM257.344 95.6V91.6H253.344V95.6H257.344ZM276.144 95.6H280.144V91.6H276.144V95.6ZM276.144 118.3H272.144V129.095L279.178 120.906L276.144 118.3ZM295.644 95.6V91.6H293.807L292.61 92.9935L295.644 95.6ZM317.044 95.6L320.077 98.2079L325.759 91.6H317.044V95.6ZM294.344 122L291.311 119.392L289.371 121.648L290.974 124.155L294.344 122ZM318.644 160V164H325.95L322.014 157.845L318.644 160ZM298.644 160L295.231 162.087L296.401 164H298.644V160ZM282.744 134L286.156 131.913L283.345 127.316L279.759 131.338L282.744 134ZM276.144 141.4L273.159 138.738L272.144 139.875V141.4H276.144ZM276.144 160V164H280.144V160H276.144ZM257.344 160H261.344V95.6H257.344H253.344V160H257.344ZM257.344 95.6V99.6H276.144V95.6V91.6H257.344V95.6ZM276.144 95.6H272.144V118.3H276.144H280.144V95.6H276.144ZM276.144 118.3L279.178 120.906L298.678 98.2065L295.644 95.6L292.61 92.9935L273.11 115.694L276.144 118.3ZM295.644 95.6V99.6H317.044V95.6V91.6H295.644V95.6ZM317.044 95.6L314.011 92.9921L291.311 119.392L294.344 122L297.377 124.608L320.077 98.2079L317.044 95.6ZM294.344 122L290.974 124.155L315.274 162.155L318.644 160L322.014 157.845L297.714 119.845L294.344 122ZM318.644 160V156H298.644V160V164H318.644V160ZM298.644 160L302.056 157.913L286.156 131.913L282.744 134L279.331 136.087L295.231 162.087L298.644 160ZM282.744 134L279.759 131.338L273.159 138.738L276.144 141.4L279.129 144.062L285.729 136.662L282.744 134ZM276.144 141.4H272.144V160H276.144H280.144V141.4H276.144ZM276.144 160V156H257.344V160V164H276.144V160ZM345.725 158.1L344.11 161.76L344.143 161.774L344.175 161.788L345.725 158.1ZM335.025 149.4L331.706 151.632L331.715 151.645L331.724 151.659L335.025 149.4ZM331.125 95.6V91.6H327.125V95.6H331.125ZM349.925 95.6H353.925V91.6H349.925V95.6ZM373.225 95.6V91.6H369.225V95.6H373.225ZM392.025 95.6H396.025V91.6H392.025V95.6ZM388.125 149.4L384.806 147.168L384.801 147.175L384.797 147.181L388.125 149.4ZM377.425 158.1L378.994 161.779L379.007 161.774L379.02 161.768L377.425 158.1ZM361.625 161V157C356.052 157 351.295 156.102 347.275 154.412L345.725 158.1L344.175 161.788C349.355 163.964 355.198 165 361.625 165V161ZM345.725 158.1L347.34 154.44C343.434 152.717 340.473 150.279 338.326 147.141L335.025 149.4L331.724 151.659C334.777 156.121 338.949 159.483 344.11 161.76L345.725 158.1ZM335.025 149.4L338.344 147.168C336.271 144.085 335.125 140.168 335.125 135.2H331.125H327.125C327.125 141.432 328.579 146.982 331.706 151.632L335.025 149.4ZM331.125 135.2H335.125V95.6H331.125H327.125V135.2H331.125ZM331.125 95.6V99.6H349.925V95.6V91.6H331.125V95.6ZM349.925 95.6H345.925V133.2H349.925H353.925V95.6H349.925ZM349.925 133.2H345.925C345.925 137.741 347.052 141.884 350.01 144.866C352.973 147.855 357.1 149 361.625 149V145V141C358.35 141 356.627 140.178 355.69 139.234C354.748 138.283 353.925 136.525 353.925 133.2H349.925ZM361.625 145V149C366.032 149 370.033 147.849 373.005 144.976L370.225 142.1L367.445 139.224C366.417 140.218 364.685 141 361.625 141V145ZM370.225 142.1L373.005 144.976C376.073 142.01 377.225 137.805 377.225 133.2H373.225H369.225C369.225 136.595 368.377 138.323 367.445 139.224L370.225 142.1ZM373.225 133.2H377.225V95.6H373.225H369.225V133.2H373.225ZM373.225 95.6V99.6H392.025V95.6V91.6H373.225V95.6ZM392.025 95.6H388.025V135.2H392.025H396.025V95.6H392.025ZM392.025 135.2H388.025C388.025 140.168 386.879 144.085 384.806 147.168L388.125 149.4L391.444 151.632C394.571 146.982 396.025 141.432 396.025 135.2H392.025ZM388.125 149.4L384.797 147.181C382.731 150.279 379.797 152.707 375.83 154.432L377.425 158.1L379.02 161.768C384.253 159.493 388.452 156.121 391.453 151.619L388.125 149.4ZM377.425 158.1L375.856 154.421C371.914 156.102 367.2 157 361.625 157V161V165C368.05 165 373.869 163.965 378.994 161.779L377.425 158.1Z" fill="#662714" mask="url(#path-2-outside-1_55_163)"/>
</svg>
